<svg xmlns="http://www.w3.org/2000/svg" xmlns:xlink="http://www.w3.org/1999/xlink" id="svg6995" x="0px" y="0px" viewBox="0 0 512 512" style="enable-background:new 0 0 512 512;" xml:space="preserve" class="" width="512"  height="512" ><style type="text/css" class="" fill="#4D4D4D">	.st0{fill:#FFFFFF;}</style><g id="layer1" transform="translate(0 -280.067)" class="" fill="#4D4D4D">	<path id="path12955" class="st0" d="M81.7,369.8l-19.9,28.7l-6.3-4.1c-4.5-3-9.6-0.9-11.7,2.3l-19.6,28.3   l-10.9-7.2C7.4,413.8,0,418.2,0,424.8V459c0,20.6,14.2,31.6,20.5,36c0.1,0,0.1,0.1,0.2,0.1l158.6,106.7c9.4,6.4,19-7.8,9.5-14.2   L30.4,481.1l-0.1-0.1c-6.2-4.4-13.2-8.6-13.2-22.1v-18.3l223.4,147.5L72.1,699.3c-7.1,4.7-3.8,15.8,4.7,15.7h85.3   c1.7,0,3.3-0.5,4.7-1.5l89.1-60l89.1,60c1.4,0.9,3.1,1.5,4.8,1.5h85.3c8.5,0,11.7-11,4.7-15.6l-107-70.6   c-9.2-6.1-18.5,8.2-9.4,14.2l83.3,55h-54.3l-81.2-54.6l220.1-148.1c0.1,0,0.1-0.1,0.2-0.1c6.3-4.4,20.5-15.4,20.5-36v-34.1   c0-7.1-8-10.6-12.8-7.4l-11.3,7.5l-19.6-28.3c-2.6-3.8-7.8-4.8-11.7-2.3l-6.3,4.1l-19.9-28.7c-2.7-3.9-8.2-4.9-12-2   c-12.7,9.2-47.8,31.4-85.5,31.4c-28.2,0-59.5,9.7-76.8,47.4c-19-42.2-55.2-46.9-76.8-47.4c-37.7,0-72.4-21.9-85.5-31.4   C88.4,363.9,83.7,366.9,81.7,369.8L81.7,369.8z M90.9,386.5c16.7,11.4,48.7,29.8,88.3,29.8c34.1,0,51,16.5,59.6,33.7   c8.6,17.2,8.7,34.6,8.7,34.6c0.2,11.2,16.9,11.2,17.1,0c0,0,0.1-17.4,8.7-34.6c8.6-17.2,25.2-33.7,59.6-33.7   c39.6,0,71.6-18.3,88.3-29.7L436,408L256,526.7L76,408L90.9,386.5z M53,413.2l198.2,130.8c2.9,1.9,6.5,1.9,9.4,0l198.2-130.8   l14.6,21.1L256,577.9L38.4,434.3L53,413.2z M494.9,440.7V459c0,13.5-7,17.7-13.3,22.1L159.5,697.9h-54.4L494.9,440.7z" fill="#FFFFFF"></path></g></svg>