<svg xmlns="http://www.w3.org/2000/svg" xmlns:xlink="http://www.w3.org/1999/xlink" id="Capa_1" x="0px" y="0px" viewBox="0 0 512 512" style="enable-background:new 0 0 512 512;" xml:space="preserve"><style type="text/css" fill="#4D4D4D">	.st0{fill:#FFFFFF;}</style><g fill="#4D4D4D">	<g fill="#4D4D4D">		<path class="st0" d="M470.1,55.2c-30.9-27.2-72.5-38.9-113-31.7c-42,7.5-78.8,32.6-101.1,69c-22.3-36.4-59.1-61.5-101.1-69    c-40.5-7.2-82.1,4.4-113,31.7C4.7,89.3-8.6,146.8,5.5,213.1c0.1,0.2,0.2,0.4,0.3,0.7c0.4,1.1,0.9,2.1,1.6,3    c0.2,0.2,0.2,0.4,0.4,0.6c0.2,0.2,0.5,0.3,0.7,0.5c0.4,0.4,0.9,0.7,1.4,0.9c1,0.5,2,0.8,3.1,0.9c0.3,0,0.6,0.2,0.8,0.2    c0.3,0,0.6-0.1,0.9-0.2c0.3,0,0.6,0,0.9,0c0.2-0.1,0.4-0.2,0.7-0.3c0.5-0.2,1.1-0.4,1.6-0.7c0.5-0.3,1-0.6,1.4-1    c0.2-0.2,0.4-0.2,0.6-0.4l30-30l0.1-0.1c6.6-6.6,17.2-6.7,23.9-0.2c6.7,6.5,6.9,17.1,0.5,23.9l-49.2,49.2c-2.2,2.2-3,5.3-2.2,8.2    c0.8,2.9,3.1,5.3,6,6s6.1,0,8.3-2.2l48.7-48.7c0.1-0.1,0.2-0.1,0.2-0.1c0.1-0.1,0.2-0.3,0.3-0.4l29.6-29.6    c0.1-0.1,0.2-0.1,0.2-0.2c6.7-6.5,17.4-6.5,24.1,0c6.6,6.6,6.6,17.4,0.1,24l-0.1,0.1l-90.9,90.9c-2.2,2.2-3,5.3-2.2,8.2    c0.8,2.9,3.1,5.2,6,6c2.9,0.8,6.1-0.1,8.2-2.2l78.9-78.8l0.2-0.2c6.7-6.5,17.5-6.3,24,0.4c6.5,6.7,6.5,17.4-0.1,24l-18.1,18.1l0,0    l0,0l-65.9,65.9c-2.2,2.2-3,5.3-2.2,8.2c0.8,2.9,3.1,5.2,6,6c2.9,0.8,6.1-0.1,8.2-2.2l65.9-65.9c6.7-6.7,17.5-6.7,24.1,0    c6.7,6.7,6.7,17.5,0,24.1c0,0,0,0.1-0.1,0.1l-66.1,66.1c0,0-0.1,0.1-0.1,0.1c0,0-0.1,0.1-0.1,0.1c-0.3,0.4-0.6,0.9-0.8,1.3    c-0.3,0.4-0.6,0.9-0.9,1.4c-0.2,0.5-0.3,1.1-0.3,1.6c-0.3,1-0.3,2.2,0.1,3.2c0.1,0.5,0.2,1.1,0.4,1.6c0.3,0.5,0.6,1,0.9,1.4    c0.2,0.4,0.5,0.9,0.8,1.3c0,0,0.1,0.1,0.1,0.1c0,0,0.1,0.1,0.1,0.1c41.7,37.4,86.8,70.8,134.8,99.7c2.7,1.7,6.2,1.7,8.9,0    c48-28.9,93.1-62.3,134.8-99.7c0,0,0.1-0.1,0.1-0.1c0,0,0.1-0.1,0.1-0.1c0.3-0.4,0.6-0.8,0.8-1.3c0.4-0.4,0.7-0.9,0.9-1.4    c0.3-1.1,0.5-2.1,0.7-3.2c0-0.5-0.1-1.1-0.2-1.6c-0.1-0.5-0.2-1.1-0.3-1.6c-0.2-0.5-0.5-1-0.9-1.4c-0.2-0.5-0.5-0.9-0.8-1.3    c0,0-0.1-0.1-0.1-0.1c0,0-0.1-0.1-0.1-0.1l-66.1-66.1c0,0,0-0.1-0.1-0.1c-6.7-6.7-6.7-17.5,0-24.1c6.7-6.7,17.5-6.7,24.1,0    l65.9,65.9c3.3,3.3,8.7,3.3,12.1,0c3.3-3.3,3.3-8.7,0-12.1l-65.9-65.9l0,0l0,0l-18.1-18.1c-4.3-4.3-6-10.6-4.4-16.5    c1.6-5.9,6.2-10.5,12.1-12.1c5.9-1.6,12.2,0.1,16.5,4.4l0.1,0.1l78.7,78.7c3.3,3.3,8.7,3.3,12,0c3.3-3.3,3.3-8.7,0-12l-78.8-78.7    l-0.1-0.1c-0.1-0.1-0.1-0.1-0.2-0.1l-11.9-11.9l0,0c-6.7-6.7-6.7-17.5,0-24.1c6.7-6.7,17.5-6.7,24.1,0c0.1,0.1,0.2,0.1,0.2,0.2    l28.8,28.8c0.3,0.4,0.7,0.8,1.2,1.2l0,0l0,0l0,0l48.9,48.8c2.2,2.2,5.3,3,8.3,2.2c2.9-0.8,5.2-3.1,6-6s-0.1-6.1-2.2-8.2l-49-48.9    c-0.1-0.2-0.3-0.4-0.5-0.5l0-0.1c-6.1-6.7-5.9-17.1,0.6-23.5c6.7-6.5,17.4-6.5,24.1,0l30.1,30.1c0.2,0.2,0.4,0.2,0.6,0.4    c0.9,0.7,1.9,1.3,3,1.6c0.2,0.1,0.4,0.2,0.7,0.3c0.6,0.1,1.2,0.2,1.8,0.2l0,0h0h0c1,0,2.1-0.2,3-0.6c0.3-0.1,0.5-0.3,0.8-0.4    c0.7-0.3,1.3-0.8,1.9-1.3c0.1-0.1,0.2-0.1,0.3-0.2c0.2-0.2,0.2-0.4,0.4-0.6c0.4-0.5,0.8-1.1,1.1-1.7c0.2-0.4,0.4-0.8,0.5-1.2    c0.1-0.3,0.2-0.5,0.3-0.8C520.5,146.8,507.3,89.3,470.1,55.2z M492.6,193.6l-18.5-18.5c-13.5-12.9-34.7-12.9-48.2,0    c-4.2,4.3-7.2,9.5-8.8,15.3l-9.3-9.3c-0.1-0.1-0.3-0.2-0.4-0.3c-11.8-11.6-30.3-13-43.7-3.3s-17.9,27.6-10.6,42.5    c-11.8,2.2-21.5,10.5-25.6,21.7c-4.1,11.2-2,23.8,5.6,33.1c-6,1.4-11.5,4.5-15.8,8.8c-13.2,13.3-13.3,34.7-0.1,48.1    c0.1,0.1,0.1,0.2,0.1,0.2l59.8,59.8c-37.7,33.1-78.2,62.9-121,89.1c-42.8-26.2-83.3-56-121-89.1l59.8-59.8    c0.1-0.1,0.1-0.2,0.1-0.2c13.1-13.4,13.1-34.8-0.1-48.1c-4.4-4.3-9.8-7.4-15.8-8.8c7.6-9.3,9.7-21.8,5.6-33.1    c-4.1-11.2-13.8-19.5-25.5-21.8c6.3-13,3.7-28.6-6.5-38.9c-13.3-12.8-34.3-12.9-47.9-0.3c-0.2,0.1-0.3,0.2-0.5,0.3l-9.3,9.3    c-1.5-5.8-4.5-11.1-8.7-15.4c-13.2-13.2-34.7-13.3-48-0.2c-0.1,0.1-0.2,0.1-0.2,0.2l-18.5,18.5c-7.7-53.3,4.3-98.6,34-125.8    c27.1-23.5,63.3-33.5,98.7-27.4c40.1,6.7,74.4,32.6,96.4,72.9c1.6,2.6,4.5,4.1,7.5,4.1s5.9-1.6,7.5-4.1    c22.1-40.4,56.3-66.3,96.4-72.9c35.3-6.1,71.6,4,98.7,27.4C488.3,95,500.3,140.3,492.6,193.6z" fill="#FFFFFF"></path>	</g></g></svg>