<svg xmlns="http://www.w3.org/2000/svg" xmlns:xlink="http://www.w3.org/1999/xlink" id="svg6995" x="0px" y="0px" viewBox="0 0 512 512" style="enable-background:new 0 0 512 512;" xml:space="preserve"><style type="text/css" fill="#4D4D4D">	.st0{fill:#FFFFFF;}</style><g id="layer1" transform="translate(0 -280.067)" fill="#4D4D4D">	<path id="path13165" class="st0" d="M250.4,280.1c-37.1,7.4-54.3,40.7-54.3,66.8c0,31.8,21.9,58.5,51.4,66.2   v16.8c-18.9,29.5-61.2,49.7-101.2,74.2c-44.5,27.2-78.2,61.1-78.6,116.7c-0.3,36.9,10.1,64.2,21.8,83.1c5.9,10.1,21,0.8,14.6-9   c-10.2-16.4-19.7-40.3-19.3-74.1c0.6-52.4,35-79.9,70.5-102.2c35.6-22.4,76.5-39.8,100.7-71.4c24.1,31.5,62.7,46.7,100.7,71.4   c38.8,25.1,71.4,52.4,70.5,102.2c-0.7,40.8-12.7,77.5-45.3,102.7H93.3c-14.1,0-25.6,11.7-25.6,25.7v34.2c0,4.7,3.8,8.6,8.5,8.6   h359.6c4.8,0,8.6-3.8,8.6-8.6v-34.2c0-14.1-11.6-25.7-25.7-25.7h-11.1c30.5-33.9,37.2-73.2,36.8-102.7   c-0.7-59.1-37.7-91.1-78.6-116.7c-39.7-24.9-82.2-44.6-101.2-74.1v-14.6c31,0,58-20.7,66-50.4c3.4-10.2-7.1-15.9-13.2-10.6   c-7.6,6.3-17.2,9.7-27.1,9.7c-23.7,0-42.8-19.1-42.8-42.9c0-9.9,3.4-19.4,9.7-27.1C261.9,288.5,257.7,279.9,250.4,280.1z    M232,307.5c-1.1,4.5-1.7,9.1-1.7,13.7c0,33,26.9,60,59.9,60c4.7,0,9.3-0.6,13.8-1.7c-9.5,11.5-23.7,18.7-39.5,18.7   c-28.5,0-51.4-22.8-51.4-51.3C213.2,331.2,220.4,317,232,307.5L232,307.5z M93.3,740.7h325.3c4.9,0,8.6,3.7,8.6,8.6v25.6H84.8   v-25.6C84.8,744.4,88.4,740.7,93.3,740.7z" fill="#FFFFFF"></path></g></svg>